<svg width="100" height="100" viewBox="0 0 24 24" fill="none" xmlns="http://www.w3.org/2000/svg">
    <path d="M16 1H8C7.44772 1 7 1.44772 7 2V6H5C4.44772 6 4 6.44772 4 7V17C4 17.5523 4.44772 18 5 18H7V22C7 22.5523 7.44772 23 8 23H16C16.5523 23 17 22.5523 17 22V18H19C19.5523 18 20 17.5523 20 17V7C20 6.44772 19.5523 6 19 6H17V2C17 1.44772 16.5523 1 16 1Z" fill="#007bff"/>
    <path d="M9 3H15V7H9V3Z" fill="#0056b3"/>
    <path d="M9 17H15V21H9V17Z" fill="#0056b3"/>
    <path d="M5 9H19V15H5V9Z" fill="#007bff"/>
</svg>
